<svg width="170" height="170" viewBox="0 0 170 170" version="1.1" xmlns="http://www.w3.org/2000/svg" xmlns:xlink="http://www.w3.org/1999/xlink">
<title>Deployment</title>
<g id="Canvas" transform="translate(86 -1286)">
<g id="Deployment">
<mask id="mask40_alpha" mask-type="alpha">
<g id="Ellipse">
<use xlink:href="#path40_fill" transform="translate(-86 1286)" fill="#C4C4C4"/>
<mask id="mask41_outline_ins">
<use xlink:href="#path40_fill" fill="white" transform="translate(-86 1286)"/>
</mask>
<g mask="url(#mask41_outline_ins)">
<use xlink:href="#path41_stroke_2x" transform="translate(-86 1286)" fill="#808080"/>
</g>
</g>
</mask>
<g id="Line" mask="url(#mask40_alpha)">
<use xlink:href="#path42_stroke" transform="matrix(0.723356 -0.690476 0.690476 0.723356 -38.466 1320.54)" fill="#808080"/>
</g>
<g id="Line" mask="url(#mask40_alpha)">
<use xlink:href="#path43_stroke" transform="matrix(0.723356 -0.690476 0.690476 0.723356 -68.5 1301.5)" fill="#808080"/>
</g>
<g id="Line" mask="url(#mask40_alpha)">
<use xlink:href="#path44_stroke" transform="matrix(0.723356 -0.690476 0.690476 0.723356 -93.9422 1412.01)" fill="#808080"/>
</g>
<g id="Line" mask="url(#mask40_alpha)">
<use xlink:href="#path45_stroke" transform="matrix(0.723356 -0.690476 0.690476 0.723356 -17.3395 1389.37)" fill="#808080"/>
</g>
<g id="Line" mask="url(#mask40_alpha)">
<use xlink:href="#path46_stroke" transform="matrix(0.723356 -0.690476 0.690476 0.723356 -75.5 1442.5)" fill="#808080"/>
</g>
<g id="Line" mask="url(#mask40_alpha)">
<use xlink:href="#path47_stroke" transform="matrix(0.723356 -0.690476 0.690476 0.723356 43.4373 1377.7)" fill="#808080"/>
</g>
<g id="Line" mask="url(#mask40_alpha)">
<use xlink:href="#path48_stroke" transform="matrix(0.723356 -0.690476 0.690476 0.723356 -17.9076 1340.53)" fill="#808080"/>
</g>
<g id="Line" mask="url(#mask40_alpha)">
<use xlink:href="#path49_stroke" transform="matrix(0.723356 -0.690476 0.690476 0.723356 -17.5 1342)" fill="#808080"/>
</g>
<g id="Line" mask="url(#mask40_alpha)">
<use xlink:href="#path410_stroke" transform="matrix(0.723356 -0.690476 0.690476 0.723356 -18.5 1456.5)" fill="#808080"/>
</g>
<g id="Line" mask="url(#mask40_alpha)">
<use xlink:href="#path411_stroke" transform="matrix(0.723356 -0.690476 0.690476 0.723356 -78.16 1399.88)" fill="#808080"/>
</g>
<g id="Line" mask="url(#mask40_alpha)">
<use xlink:href="#path412_stroke" transform="matrix(0.723356 -0.690476 0.690476 0.723356 -144 1362.26)" fill="#808080"/>
</g>
<g id="Ellipse" mask="url(#mask40_alpha)">
<mask id="mask42_outline_ins">
<use xlink:href="#path40_fill" fill="white" transform="translate(-86 1286)"/>
</mask>
<g mask="url(#mask42_outline_ins)">
<use xlink:href="#path41_stroke_2x" transform="translate(-86 1286)" fill="#808080"/>
</g>
</g>
</g>
</g>
<defs>
<path id="path40_fill" d="M 170 85C 170 131.944 131.944 170 85 170C 38.0558 170 0 131.944 0 85C 0 38.0558 38.0558 0 85 0C 131.944 0 170 38.0558 170 85Z"/>
<path id="path41_stroke_2x" d="M 167 85C 167 130.287 130.287 167 85 167L 85 173C 133.601 173 173 133.601 173 85L 167 85ZM 85 167C 39.7127 167 3 130.287 3 85L -3 85C -3 133.601 36.3989 173 85 173L 85 167ZM 3 85C 3 39.7127 39.7127 3 85 3L 85 -3C 36.3989 -3 -3 36.3989 -3 85L 3 85ZM 85 3C 130.287 3 167 39.7127 167 85L 173 85C 173 36.3989 133.601 -3 85 -3L 85 3Z"/>
<path id="path42_stroke" d="M 0.0457102 31.3635L 62.9284 28.4865L 62.837 26.4886L -0.0456988 29.3656L 0.0457102 31.3635ZM 12.603 0.875476L 62.3994 28.363L 63.3659 26.612L 13.5695 -0.875476L 12.603 0.875476ZM 74.5001 38.5797L 63.6169 26.8086L 62.1484 28.1664L 73.0316 39.9374L 74.5001 38.5797ZM 78.4552 30.7654L 63.1497 26.5238L 62.6156 28.4512L 77.9211 32.6928L 78.4552 30.7654ZM 72.1965 21.4252L 62.4148 26.6037L 63.3506 28.3713L 73.1322 23.1928L 72.1965 21.4252Z"/>
<path id="path43_stroke" d="M 10.2199 65.2196L 22.2465 34.4676L 20.3838 33.7392L 8.35723 64.4912L 10.2199 65.2196ZM -0.847992 0.530008L 20.4672 34.6334L 22.1631 33.5734L 0.847992 -0.530008L -0.847992 0.530008ZM 68.6846 40.9187L 21.4782 33.1168L 21.1521 35.09L 68.3584 42.8919L 68.6846 40.9187ZM 52.6415 23.9789L 21.0367 33.1429L 21.5936 35.0638L 53.1985 25.8998L 52.6415 23.9789ZM 32.6451 11.4692L 20.4393 33.6208L 22.191 34.586L 34.3968 12.4344L 32.6451 11.4692Z"/>
<path id="path44_stroke" d="M 29.2731 40.2048L 55.1401 5.81547L 53.5417 4.61324L 27.6748 39.0026L 29.2731 40.2048ZM 12.928 0.992119L 54.2156 6.20647L 54.4662 4.22223L 13.1786 -0.992119L 12.928 0.992119ZM 104.651 1.46753L 54.2864 4.21584L 54.3954 6.21287L 104.76 3.46456L 104.651 1.46753ZM 0.439174 32.6768L 54.7801 6.11275L 53.9017 4.31595L -0.439174 30.8799L 0.439174 32.6768Z"/>
<path id="path45_stroke" d="M 101.297 34.1472L 54.5903 22.117L 54.0915 24.0538L 100.798 36.084L 101.297 34.1472ZM 86.9254 52.8064L 55.0314 22.362L 53.6504 23.8088L 85.5445 54.2531L 86.9254 52.8064ZM 74.3782 -0.66903L 53.5977 22.4164L 55.0841 23.7544L 75.8647 0.66903L 74.3782 -0.66903ZM 0.439175 50.5478L 54.7801 23.9838L 53.9017 22.187L -0.439175 48.751L 0.439175 50.5478Z"/>
<path id="path46_stroke" d="M 35.6756 4.26022L 36.5928 4.65858L 37.1279 3.42654L 35.7942 3.26727L 35.6756 4.26022ZM 17.2585 49.1755L 36.5928 4.65858L 34.7584 3.86185L 15.424 48.3788L 17.2585 49.1755ZM -0.118573 0.992945L 35.557 5.25316L 35.7942 3.26727L 0.118573 -0.992945L -0.118573 0.992945Z"/>
<path id="path47_stroke" d="M 32.1806 17.4262L 32.9217 18.0976L 33.0035 18.0074L 33.0611 17.9002L 32.1806 17.4262ZM 0.741087 53.6243L 32.9217 18.0976L 31.4394 16.7549L -0.741207 52.2816L 0.741087 53.6243ZM 40.6795 -0.473946L 31.3 16.9523L 33.0611 17.9002L 42.4406 0.473946L 40.6795 -0.473946Z"/>
<path id="path48_stroke" d="M 82.0804 55.5915L 68.5047 27.539L 66.7045 28.4102L 80.2801 56.4627L 82.0804 55.5915ZM -0.358188 2.97218L 67.2464 28.9082L 67.9628 27.0409L 0.358188 1.10488L -0.358188 2.97218ZM 71.4653 -0.170674L 66.6193 27.8039L 68.5899 28.1452L 73.4359 0.170701L 71.4653 -0.170674Z"/>
<path id="path49_stroke" d="M 61.5001 67.058L 42.8156 34.1289L 41.0761 35.1159L 59.7606 68.045L 61.5001 67.058ZM -0.63657 0.771219L 41.3093 35.3936L 42.5824 33.8512L 0.63657 -0.771219L -0.63657 0.771219ZM 80.4758 59.5562L 42.5073 33.7949L 41.3844 35.4499L 79.3529 61.2113L 80.4758 59.5562ZM 85.1459 37.3415L 42.0317 33.6261L 41.86 35.6187L 84.9742 39.3342L 85.1459 37.3415Z"/>
<path id="path410_stroke" d="M 48.3343 1.1367L 48.3666 0.13718L 48.3578 0.136972L 48.3343 1.1367ZM 141.235 3.14338L 48.3666 0.137219L 48.3019 2.13617L 141.17 5.14233L 141.235 3.14338ZM 96.8601 33.7197L 48.9058 0.316144L 47.7627 1.95725L 95.7169 35.3608L 96.8601 33.7197ZM -0.0235109 0.999724L 48.3107 2.13642L 48.3578 0.136972L 0.0235109 -0.999724L -0.0235109 0.999724ZM 21.4874 28.1776L 49.0252 1.85963L 47.6433 0.413758L 20.1056 26.7317L 21.4874 28.1776Z"/>
<path id="path411_stroke" d="M 9.06941 38.1204L 63.1328 35.7436L 63.045 33.7456L 8.98157 36.1223L 9.06941 38.1204ZM 35.0665 3.90975L 62.3329 35.3992L 63.8449 34.09L 36.5785 2.60056L 35.0665 3.90975ZM 104.762 56.6647L 63.5731 33.8696L 62.6047 35.6195L 103.794 58.4146L 104.762 56.6647ZM 126.368 33.3923L 63.0833 33.7446L 63.0945 35.7446L 126.379 35.3923L 126.368 33.3923ZM 83.6997 -0.525522L 62.2381 34.2191L 63.9397 35.2701L 85.4012 0.525522L 83.6997 -0.525522ZM 54.5583 82.6089L 64.0696 34.9403L 62.1082 34.5489L 52.5969 82.2176L 54.5583 82.6089ZM 0.536191 75.6621L 63.6251 35.5887L 62.5527 33.9005L -0.536149 73.9739L 0.536191 75.6621Z"/>
<path id="path412_stroke" d="M 9.06939 38.1204L 63.1328 35.7436L 63.045 33.7456L 8.98155 36.1223L 9.06939 38.1204ZM 35.0665 3.90975L 62.3329 35.3992L 63.8449 34.09L 36.5785 2.60056L 35.0665 3.90975ZM 106.521 72.2918L 63.756 33.9996L 62.4218 35.4896L 105.187 73.7818L 106.521 72.2918ZM 119.08 41.6822L 63.2294 33.7545L 62.9484 35.7347L 118.799 43.6624L 119.08 41.6822ZM 83.6996 -0.525522L 62.2381 34.2191L 63.9397 35.2701L 85.4012 0.525522L 83.6996 -0.525522ZM 57.7526 76.0984L 64.0773 34.8963L 62.1005 34.5929L 55.7757 75.7949L 57.7526 76.0984ZM 0.53617 75.6621L 63.6251 35.5887L 62.5527 33.9005L -0.53617 73.9739L 0.53617 75.6621Z"/>
</defs>
</svg>
