<svg width="170" height="170" viewBox="0 0 170 170" version="1.1" xmlns="http://www.w3.org/2000/svg" xmlns:xlink="http://www.w3.org/1999/xlink">
<title>Design</title>
<g id="Canvas" transform="translate(441 -1291)">
<g id="Design">
<mask id="mask0_alpha" mask-type="alpha">
<g id="Ellipse">
<use xlink:href="#path0_fill" transform="translate(-441 1291)" fill="#C4C4C4"/>
<mask id="mask1_outline_ins">
<use xlink:href="#path0_fill" fill="white" transform="translate(-441 1291)"/>
</mask>
<g mask="url(#mask1_outline_ins)">
<use xlink:href="#path1_stroke_2x" transform="translate(-441 1291)" fill="#FFFFFF"/>
</g>
</g>
</mask>
<g id="Ellipse" mask="url(#mask0_alpha)">
<mask id="mask2_outline_ins">
<use xlink:href="#path2_fill" fill="white" transform="translate(-320 1345)"/>
</mask>
<g mask="url(#mask2_outline_ins)">
<use xlink:href="#path3_stroke_2x" transform="translate(-320 1345)" fill="#808080"/>
</g>
</g>
<g id="Ellipse" mask="url(#mask0_alpha)">
<mask id="mask3_outline_ins">
<use xlink:href="#path4_fill" fill="white" transform="translate(-524 1363)"/>
</mask>
<g mask="url(#mask3_outline_ins)">
<use xlink:href="#path5_stroke_2x" transform="translate(-524 1363)" fill="#808080"/>
</g>
</g>
<g id="Ellipse" mask="url(#mask0_alpha)">
<mask id="mask4_outline_ins">
<use xlink:href="#path6_fill" fill="white" transform="translate(-491 1261)"/>
</mask>
<g mask="url(#mask4_outline_ins)">
<use xlink:href="#path7_stroke_2x" transform="translate(-491 1261)" fill="#808080"/>
</g>
</g>
<g id="Ellipse" mask="url(#mask0_alpha)">
<mask id="mask5_outline_ins">
<use xlink:href="#path8_fill" fill="white" transform="translate(-329 1297)"/>
</mask>
<g mask="url(#mask5_outline_ins)">
<use xlink:href="#path9_stroke_2x" transform="translate(-329 1297)" fill="#808080"/>
</g>
</g>
<g id="Line" mask="url(#mask0_alpha)">
<use xlink:href="#path10_stroke" transform="matrix(0.143244 0.989687 -0.989687 0.143244 -403 1305)" fill="#808080"/>
</g>
<g id="Line" mask="url(#mask0_alpha)">
<use xlink:href="#path11_stroke" transform="matrix(0.997555 0.0698924 -0.0698924 0.997555 -439 1430)" fill="#808080"/>
</g>
<g id="Ellipse" mask="url(#mask0_alpha)">
<use xlink:href="#path12_fill" transform="translate(-322 1371)" fill="#808080"/>
</g>
<g id="Ellipse" mask="url(#mask0_alpha)">
<use xlink:href="#path12_fill" transform="translate(-360 1305)" fill="#808080"/>
</g>
<g id="Ellipse" mask="url(#mask0_alpha)">
<use xlink:href="#path12_fill" transform="translate(-389 1427)" fill="#808080"/>
</g>
<g id="Ellipse" mask="url(#mask0_alpha)">
<mask id="mask6_outline_ins">
<use xlink:href="#path0_fill" fill="white" transform="translate(-441 1291)"/>
</mask>
<g mask="url(#mask6_outline_ins)">
<use xlink:href="#path1_stroke_2x" transform="translate(-441 1291)" fill="#808080"/>
</g>
</g>
</g>
</g>
<defs>
<path id="path0_fill" d="M 170 85C 170 131.944 131.944 170 85 170C 38.0558 170 0 131.944 0 85C 0 38.0558 38.0558 0 85 0C 131.944 0 170 38.0558 170 85Z"/>
<path id="path1_stroke_2x" d="M 167 85C 167 130.287 130.287 167 85 167L 85 173C 133.601 173 173 133.601 173 85L 167 85ZM 85 167C 39.7127 167 3 130.287 3 85L -3 85C -3 133.601 36.3989 173 85 173L 85 167ZM 3 85C 3 39.7127 39.7127 3 85 3L 85 -3C 36.3989 -3 -3 36.3989 -3 85L 3 85ZM 85 3C 130.287 3 167 39.7127 167 85L 173 85C 173 36.3989 133.601 -3 85 -3L 85 3Z"/>
<path id="path2_fill" d="M 90 45C 90 69.8528 69.8528 90 45 90C 20.1472 90 0 69.8528 0 45C 0 20.1472 20.1472 0 45 0C 69.8528 0 90 20.1472 90 45Z"/>
<path id="path3_stroke_2x" d="M 91 45C 90.9997 43.4866 90.925 41.9663 90.7817 40.4907L 88.7911 40.6844C 88.9304 42.1122 89.0003 43.5357 89 45L 91 45ZM 89.0304 31.6428C 88.1524 28.749 86.9779 25.9311 85.576 23.3112L 83.8129 24.2555C 85.1713 26.789 86.2699 29.4246 87.1164 32.2227L 89.0304 31.6428ZM 80.5595 15.817C 78.6565 13.5028 76.4972 11.3435 74.183 9.44054L 72.9133 10.9859C 75.1537 12.825 77.175 14.8463 79.0141 17.0867L 80.5595 15.817ZM 66.6888 4.42403C 64.0689 3.02208 61.251 1.84761 58.3572 0.969556L 57.7773 2.88364C 60.5754 3.73006 63.211 4.82874 65.7445 6.18706L 66.6888 4.42403ZM 49.5093 -0.781713C 48.0337 -0.925032 46.5134 -0.999699 45 -1L 45 1C 46.4643 0.999699 47.8878 1.06963 49.3156 1.20888L 49.5093 -0.781713ZM 45 -1C 43.4866 -0.999699 41.9663 -0.925032 40.4907 -0.781713L 40.6844 1.20888C 42.1122 1.06963 43.5357 0.999699 45 1L 45 -1ZM 31.6428 0.969556C 28.749 1.84761 25.9311 3.02208 23.3112 4.42403L 24.2555 6.18706C 26.789 4.82874 29.4246 3.73006 32.2227 2.88364L 31.6428 0.969556ZM 15.817 9.44054C 13.5028 11.3435 11.3435 13.5028 9.44054 15.817L 10.9859 17.0867C 12.825 14.8463 14.8463 12.825 17.0867 10.9859L 15.817 9.44054ZM 4.42403 23.3112C 3.02208 25.9311 1.84761 28.749 0.969556 31.6428L 2.88364 32.2227C 3.73006 29.4246 4.82874 26.789 6.18706 24.2555L 4.42403 23.3112ZM -0.781713 40.4907C -0.925032 41.9663 -0.999699 43.4866 -1 45L 1 45C 0.999699 43.5357 1.06963 42.1122 1.20888 40.6844L -0.781713 40.4907ZM -1 45C -0.999699 46.5134 -0.925032 48.0337 -0.781713 49.5093L 1.20888 49.3156C 1.06963 47.8878 0.999699 46.4643 1 45L -1 45ZM 0.969556 58.3572C 1.84761 61.251 3.02208 64.0689 4.42403 66.6888L 6.18706 65.7445C 4.82874 63.211 3.73006 60.5754 2.88364 57.7773L 0.969556 58.3572ZM 9.44054 74.183C 11.3435 76.4972 13.5028 78.6565 15.817 80.5595L 17.0867 79.0141C 14.8463 77.175 12.825 75.1537 10.9859 72.9133L 9.44054 74.183ZM 23.3112 85.576C 25.9311 86.9779 28.749 88.1524 31.6428 89.0304L 32.2227 87.1164C 29.4246 86.2699 26.789 85.1713 24.2555 83.8129L 23.3112 85.576ZM 40.4907 90.7817C 41.9663 90.925 43.4866 90.9997 45 91L 45 89C 43.5357 89.0003 42.1122 88.9304 40.6844 88.7911L 40.4907 90.7817ZM 45 91C 46.5134 90.9997 48.0337 90.925 49.5093 90.7817L 49.3156 88.7911C 47.8878 88.9304 46.4643 89.0003 45 89L 45 91ZM 58.3572 89.0304C 61.251 88.1524 64.0689 86.9779 66.6888 85.576L 65.7445 83.8129C 63.211 85.1713 60.5754 86.2699 57.7773 87.1164L 58.3572 89.0304ZM 74.183 80.5595C 76.4972 78.6565 78.6565 76.4972 80.5595 74.183L 79.0141 72.9133C 77.175 75.1537 75.1537 77.175 72.9133 79.0141L 74.183 80.5595ZM 85.576 66.6888C 86.9779 64.0689 88.1524 61.251 89.0304 58.3572L 87.1164 57.7773C 86.2699 60.5754 85.1713 63.211 83.8129 65.7445L 85.576 66.6888ZM 90.7817 49.5093C 90.925 48.0337 90.9997 46.5134 91 45L 89 45C 89.0003 46.4643 88.9304 47.8878 88.7911 49.3156L 90.7817 49.5093ZM 92 45C 91.9994 43.4621 91.9224 41.8933 91.777 40.3938L 87.7958 40.7812C 87.933 42.1852 88.0006 43.5603 88 45L 92 45ZM 89.9875 31.3528C 89.0936 28.4113 87.8812 25.5022 86.4575 22.8391L 82.9314 24.7277C 84.2679 27.218 85.3287 29.7624 86.1593 32.5127L 89.9875 31.3528ZM 81.3321 15.1822C 79.3973 12.831 77.169 10.6027 74.8178 8.66789L 72.2785 11.7585C 74.4819 13.5658 76.4342 15.5181 78.2415 17.7215L 81.3321 15.1822ZM 67.1609 3.54252C 64.4978 2.11876 61.5887 0.906386 58.6472 0.012516L 57.4873 3.84068C 60.2376 4.67129 62.782 5.73207 65.2723 7.06858L 67.1609 3.54252ZM 49.6062 -1.77701C 48.1067 -1.92237 46.5379 -1.9994 45 -2L 45 2C 46.4397 1.9994 47.8148 2.06697 49.2187 2.20418L 49.6062 -1.77701ZM 45 -2C 43.4621 -1.9994 41.8933 -1.92236 40.3938 -1.77701L 40.7812 2.20418C 42.1852 2.06697 43.5603 1.9994 45 2L 45 -2ZM 31.3528 0.0125158C 28.4113 0.906386 25.5022 2.11876 22.8391 3.54252L 24.7277 7.06858C 27.218 5.73207 29.7624 4.67129 32.5127 3.84068L 31.3528 0.0125158ZM 15.1822 8.66789C 12.831 10.6027 10.6027 12.831 8.66789 15.1822L 11.7585 17.7215C 13.5658 15.5181 15.5181 13.5658 17.7215 11.7585L 15.1822 8.66789ZM 3.54252 22.8391C 2.11876 25.5022 0.906386 28.4113 0.012516 31.3528L 3.84068 32.5127C 4.67129 29.7624 5.73207 27.218 7.06858 24.7277L 3.54252 22.8391ZM -1.77701 40.3938C -1.92237 41.8933 -1.9994 43.4621 -2 45L 2 45C 1.9994 43.5603 2.06697 42.1852 2.20418 40.7813L -1.77701 40.3938ZM -2 45C -1.9994 46.5379 -1.92236 48.1067 -1.77701 49.6062L 2.20418 49.2188C 2.06697 47.8148 1.9994 46.4397 2 45L -2 45ZM 0.0125158 58.6472C 0.906386 61.5887 2.11876 64.4978 3.54252 67.1609L 7.06858 65.2723C 5.73207 62.782 4.67129 60.2376 3.84068 57.4873L 0.0125158 58.6472ZM 8.66789 74.8178C 10.6027 77.169 12.831 79.3973 15.1822 81.3321L 17.7215 78.2415C 15.5181 76.4342 13.5658 74.4819 11.7585 72.2785L 8.66789 74.8178ZM 22.8391 86.4575C 25.5022 87.8812 28.4113 89.0936 31.3528 89.9875L 32.5127 86.1593C 29.7624 85.3287 27.218 84.2679 24.7277 82.9314L 22.8391 86.4575ZM 40.3938 91.777C 41.8933 91.9224 43.4621 91.9994 45 92L 45 88C 43.5603 88.0006 42.1852 87.933 40.7813 87.7958L 40.3938 91.777ZM 45 92C 46.5379 91.9994 48.1067 91.9224 49.6062 91.777L 49.2188 87.7958C 47.8148 87.933 46.4397 88.0006 45 88L 45 92ZM 58.6472 89.9875C 61.5887 89.0936 64.4978 87.8812 67.1609 86.4575L 65.2723 82.9314C 62.782 84.2679 60.2376 85.3287 57.4873 86.1593L 58.6472 89.9875ZM 74.8178 81.3321C 77.169 79.3973 79.3973 77.169 81.3321 74.8178L 78.2415 72.2785C 76.4342 74.4819 74.4819 76.4342 72.2785 78.2415L 74.8178 81.3321ZM 86.4575 67.1609C 87.8812 64.4978 89.0936 61.5887 89.9875 58.6472L 86.1593 57.4873C 85.3287 60.2376 84.2679 62.782 82.9314 65.2723L 86.4575 67.1609ZM 91.777 49.6062C 91.9224 48.1067 91.9994 46.5379 92 45L 88 45C 88.0006 46.4397 87.933 47.8148 87.7958 49.2187L 91.777 49.6062Z"/>
<path id="path4_fill" d="M 300 150C 300 232.843 232.843 300 150 300C 67.1573 300 0 232.843 0 150C 0 67.1573 67.1573 0 150 0C 232.843 0 300 67.1573 300 150Z"/>
<path id="path5_stroke_2x" d="M 298 150C 298 231.738 231.738 298 150 298L 150 302C 233.947 302 302 233.947 302 150L 298 150ZM 150 298C 68.2619 298 2 231.738 2 150L -2 150C -2 233.947 66.0527 302 150 302L 150 298ZM 2 150C 2 68.2619 68.2619 2 150 2L 150 -2C 66.0527 -2 -2 66.0527 -2 150L 2 150ZM 150 2C 231.738 2 298 68.2619 298 150L 302 150C 302 66.0527 233.947 -2 150 -2L 150 2Z"/>
<path id="path6_fill" d="M 140 70C 140 108.66 108.66 140 70 140C 31.3401 140 0 108.66 0 70C 0 31.3401 31.3401 0 70 0C 108.66 0 140 31.3401 140 70Z"/>
<path id="path7_stroke_2x" d="M 141 70C 141 68.1303 140.927 66.2581 140.784 64.425L 138.79 64.5799C 138.93 66.3747 139 68.1694 139 70L 141 70ZM 139.053 53.4191C 138.182 49.7819 137.019 46.2164 135.612 42.8218L 133.765 43.5879C 135.143 46.9101 136.257 50.3252 137.108 53.8844L 139.053 53.4191ZM 130.546 32.8975C 128.601 29.7319 126.392 26.6992 123.99 23.8883L 122.47 25.1879C 124.822 27.9388 126.939 30.8449 128.842 33.9441L 130.546 32.8975ZM 116.112 16.0102C 113.301 13.6082 110.268 11.3989 107.102 9.45401L 106.056 11.1583C 109.155 13.0606 112.061 15.1777 114.812 17.5304L 116.112 16.0102ZM 97.1782 4.38791C 93.7836 2.98106 90.2181 1.81782 86.5809 0.946774L 86.1155 2.89188C 89.6748 3.74261 93.0899 4.85688 96.4121 6.23536L 97.1782 4.38791ZM 75.575 -0.784291C 73.7419 -0.92652 71.8697 -0.999809 70 -1L 70 1C 71.8306 0.999809 73.6253 1.07008 75.4201 1.2097L 75.575 -0.784291ZM 70 -1C 68.1303 -0.999809 66.2581 -0.92652 64.425 -0.784291L 64.5799 1.2097C 66.3747 1.07008 68.1694 0.999809 70 1L 70 -1ZM 53.4191 0.946774C 49.7819 1.81782 46.2164 2.98106 42.8218 4.38791L 43.5879 6.23536C 46.9101 4.85688 50.3252 3.74261 53.8844 2.89188L 53.4191 0.946774ZM 32.8975 9.45402C 29.7319 11.3989 26.6992 13.6082 23.8883 16.0102L 25.1879 17.5304C 27.9388 15.1777 30.8449 13.0606 33.9441 11.1583L 32.8975 9.45402ZM 16.0102 23.8883C 13.6082 26.6992 11.3989 29.7319 9.45401 32.8975L 11.1583 33.9441C 13.0606 30.8449 15.1777 27.9388 17.5304 25.1879L 16.0102 23.8883ZM 4.38791 42.8218C 2.98106 46.2164 1.81782 49.7819 0.946774 53.4191L 2.89188 53.8844C 3.74261 50.3252 4.85688 46.9101 6.23536 43.5879L 4.38791 42.8218ZM -0.784291 64.425C -0.92652 66.2581 -0.999809 68.1303 -1 70L 1 70C 0.999809 68.1694 1.07008 66.3747 1.2097 64.5799L -0.784291 64.425ZM -1 70C -0.999809 71.8697 -0.92652 73.7419 -0.784291 75.575L 1.2097 75.4201C 1.07008 73.6253 0.999809 71.8306 1 70L -1 70ZM 0.946774 86.5809C 1.81782 90.2181 2.98106 93.7836 4.38791 97.1782L 6.23536 96.4121C 4.85688 93.0899 3.74261 89.6748 2.89188 86.1156L 0.946774 86.5809ZM 9.45402 107.102C 11.3989 110.268 13.6082 113.301 16.0102 116.112L 17.5304 114.812C 15.1777 112.061 13.0606 109.155 11.1583 106.056L 9.45402 107.102ZM 23.8883 123.99C 26.6992 126.392 29.7319 128.601 32.8975 130.546L 33.9441 128.842C 30.8449 126.939 27.9388 124.822 25.1879 122.47L 23.8883 123.99ZM 42.8218 135.612C 46.2164 137.019 49.7819 138.182 53.4191 139.053L 53.8844 137.108C 50.3252 136.257 46.9101 135.143 43.5879 133.765L 42.8218 135.612ZM 64.425 140.784C 66.2581 140.927 68.1303 141 70 141L 70 139C 68.1694 139 66.3747 138.93 64.5799 138.79L 64.425 140.784ZM 70 141C 71.8697 141 73.7419 140.927 75.575 140.784L 75.4201 138.79C 73.6253 138.93 71.8306 139 70 139L 70 141ZM 86.5809 139.053C 90.2181 138.182 93.7836 137.019 97.1782 135.612L 96.4121 133.765C 93.0899 135.143 89.6748 136.257 86.1156 137.108L 86.5809 139.053ZM 107.102 130.546C 110.268 128.601 113.301 126.392 116.112 123.99L 114.812 122.47C 112.061 124.822 109.155 126.939 106.056 128.842L 107.102 130.546ZM 123.99 116.112C 126.392 113.301 128.601 110.268 130.546 107.102L 128.842 106.056C 126.939 109.155 124.822 112.061 122.47 114.812L 123.99 116.112ZM 135.612 97.1782C 137.019 93.7836 138.182 90.2181 139.053 86.5809L 137.108 86.1155C 136.257 89.6748 135.143 93.0899 133.765 96.4121L 135.612 97.1782ZM 140.784 75.575C 140.927 73.7419 141 71.8697 141 70L 139 70C 139 71.8306 138.93 73.6253 138.79 75.4201L 140.784 75.575ZM 142 70C 142 68.1107 141.925 66.1998 141.781 64.3475L 137.793 64.6573C 137.932 66.433 138 68.189 138 70L 142 70ZM 140.026 53.1864C 139.145 49.5102 137.957 45.8695 136.536 42.4387L 132.841 43.971C 134.205 47.257 135.295 50.5968 136.136 54.1171L 140.026 53.1864ZM 131.398 32.3742C 129.432 29.1754 127.177 26.0795 124.75 23.2385L 121.71 25.8377C 124.037 28.5586 126.109 31.4014 127.99 34.4674L 131.398 32.3742ZM 116.761 15.2501C 113.921 12.8234 110.825 10.568 107.626 8.60186L 105.533 12.0105C 108.599 13.8914 111.441 15.9625 114.162 18.2905L 116.761 15.2501ZM 97.5613 3.46418C 94.1305 2.04315 90.4898 0.855425 86.8136 -0.0257779L 85.8829 3.86443C 89.4032 4.70501 92.743 5.79479 96.029 7.15909L 97.5613 3.46418ZM 75.6525 -1.78129C 73.8002 -1.92482 71.8893 -1.99962 70 -2L 70 2C 71.811 1.99962 73.567 2.06838 75.3427 2.2067L 75.6525 -1.78129ZM 70 -2C 68.1107 -1.99962 66.1998 -1.92482 64.3475 -1.78129L 64.6573 2.2067C 66.433 2.06838 68.189 1.99962 70 2L 70 -2ZM 53.1864 -0.0257773C 49.5102 0.855426 45.8695 2.04315 42.4387 3.46419L 43.971 7.15909C 47.257 5.79479 50.5968 4.70501 54.1171 3.86443L 53.1864 -0.0257773ZM 32.3742 8.60187C 29.1754 10.568 26.0795 12.8234 23.2385 15.2501L 25.8377 18.2905C 28.5586 15.9625 31.4014 13.8914 34.4674 12.0105L 32.3742 8.60187ZM 15.2501 23.2385C 12.8234 26.0795 10.568 29.1754 8.60186 32.3742L 12.0105 34.4674C 13.8914 31.4014 15.9625 28.5586 18.2905 25.8377L 15.2501 23.2385ZM 3.46418 42.4387C 2.04315 45.8695 0.855425 49.5102 -0.0257779 53.1864L 3.86443 54.1171C 4.70501 50.5968 5.79479 47.257 7.15909 43.971L 3.46418 42.4387ZM -1.78129 64.3475C -1.92482 66.1998 -1.99962 68.1107 -2 70L 2 70C 1.99962 68.189 2.06838 66.433 2.2067 64.6573L -1.78129 64.3475ZM -2 70C -1.99962 71.8893 -1.92482 73.8002 -1.78129 75.6525L 2.2067 75.3427C 2.06838 73.567 1.99962 71.811 2 70L -2 70ZM -0.0257773 86.8136C 0.855426 90.4898 2.04315 94.1305 3.46419 97.5613L 7.15909 96.029C 5.79479 92.743 4.70501 89.4032 3.86443 85.8829L -0.0257773 86.8136ZM 8.60187 107.626C 10.568 110.825 12.8234 113.921 15.2501 116.761L 18.2905 114.162C 15.9625 111.441 13.8914 108.599 12.0105 105.533L 8.60187 107.626ZM 23.2385 124.75C 26.0795 127.177 29.1754 129.432 32.3742 131.398L 34.4674 127.99C 31.4014 126.109 28.5586 124.037 25.8377 121.71L 23.2385 124.75ZM 42.4387 136.536C 45.8695 137.957 49.5102 139.145 53.1864 140.026L 54.1171 136.136C 50.5968 135.295 47.257 134.205 43.971 132.841L 42.4387 136.536ZM 64.3475 141.781C 66.1998 141.925 68.1107 142 70 142L 70 138C 68.189 138 66.433 137.932 64.6573 137.793L 64.3475 141.781ZM 70 142C 71.8893 142 73.8002 141.925 75.6525 141.781L 75.3427 137.793C 73.567 137.932 71.811 138 70 138L 70 142ZM 86.8136 140.026C 90.4898 139.145 94.1305 137.957 97.5613 136.536L 96.029 132.841C 92.743 134.205 89.4032 135.295 85.8829 136.136L 86.8136 140.026ZM 107.626 131.398C 110.825 129.432 113.921 127.177 116.761 124.75L 114.162 121.71C 111.441 124.037 108.599 126.109 105.533 127.99L 107.626 131.398ZM 124.75 116.761C 127.177 113.921 129.432 110.825 131.398 107.626L 127.99 105.533C 126.109 108.599 124.037 111.441 121.71 114.162L 124.75 116.761ZM 136.536 97.5613C 137.957 94.1305 139.145 90.4898 140.026 86.8136L 136.136 85.8829C 135.295 89.4032 134.205 92.743 132.841 96.029L 136.536 97.5613ZM 141.781 75.6525C 141.925 73.8002 142 71.8893 142 70L 138 70C 138 71.811 137.932 73.567 137.793 75.3427L 141.781 75.6525Z"/>
<path id="path8_fill" d="M 40 20C 40 31.0457 31.0457 40 20 40C 8.9543 40 0 31.0457 0 20C 0 8.9543 8.9543 0 20 0C 31.0457 0 40 8.9543 40 20Z"/>
<path id="path9_stroke_2x" d="M 41 20C 40.9987 18.6143 40.8582 17.2121 40.6003 15.9027L 38.6383 16.2908C 38.8799 17.5063 39.0013 18.7143 39 20L 41 20ZM 37.4623 8.33137C 35.9439 6.07192 33.9281 4.05613 31.6686 2.53772L 30.556 4.19966C 32.6586 5.60158 34.3984 7.3414 35.8003 9.44401L 37.4623 8.33137ZM 24.0973 -0.600307C 22.7879 -0.858181 21.3857 -0.99875 20 -1L 20 1C 21.2857 0.99875 22.4937 1.12006 23.7092 1.36167L 24.0973 -0.600307ZM 20 -1C 18.6143 -0.99875 17.2121 -0.858181 15.9027 -0.600307L 16.2908 1.36167C 17.5063 1.12006 18.7143 0.99875 20 1L 20 -1ZM 8.33137 2.53772C 6.07192 4.05613 4.05613 6.07192 2.53772 8.33137L 4.19966 9.44401C 5.60158 7.3414 7.3414 5.60158 9.44401 4.19966L 8.33137 2.53772ZM -0.600307 15.9027C -0.858181 17.2121 -0.99875 18.6143 -1 20L 1 20C 0.99875 18.7143 1.12006 17.5063 1.36167 16.2908L -0.600307 15.9027ZM -1 20C -0.99875 21.3857 -0.858181 22.7879 -0.600307 24.0973L 1.36167 23.7092C 1.12006 22.4937 0.99875 21.2857 1 20L -1 20ZM 2.53772 31.6686C 4.05613 33.9281 6.07192 35.9439 8.33137 37.4623L 9.44401 35.8003C 7.3414 34.3984 5.60158 32.6586 4.19966 30.556L 2.53772 31.6686ZM 15.9027 40.6003C 17.2121 40.8582 18.6143 40.9987 20 41L 20 39C 18.7143 39.0013 17.5063 38.8799 16.2908 38.6383L 15.9027 40.6003ZM 20 41C 21.3857 40.9987 22.7879 40.8582 24.0973 40.6003L 23.7092 38.6383C 22.4937 38.8799 21.2857 39.0013 20 39L 20 41ZM 31.6686 37.4623C 33.9281 35.9439 35.9439 33.9281 37.4623 31.6686L 35.8003 30.556C 34.3984 32.6586 32.6586 34.3984 30.556 35.8003L 31.6686 37.4623ZM 40.6003 24.0973C 40.8582 22.7879 40.9987 21.3857 41 20L 39 20C 39.0013 21.2857 38.8799 22.4937 38.6383 23.7092L 40.6003 24.0973ZM 42 20C 41.9975 18.5643 41.8473 17.0649 41.5813 15.7086L 37.6573 16.4849C 37.8908 17.6534 38.0025 18.7642 38 20L 42 20ZM 38.2932 7.77505C 36.7166 5.43718 34.5628 3.28341 32.225 1.70676L 29.9997 5.03063C 32.0239 6.3743 33.6257 7.97614 34.9694 10.0003L 38.2932 7.77505ZM 24.2914 -1.58129C 22.9351 -1.8473 21.4357 -1.9975 20 -2L 20 2C 21.2358 1.9975 22.3466 2.10918 23.5151 2.34266L 24.2914 -1.58129ZM 20 -2C 18.5643 -1.9975 17.0649 -1.8473 15.7086 -1.58129L 16.4849 2.34266C 17.6534 2.10918 18.7642 1.9975 20 2L 20 -2ZM 7.77505 1.70676C 5.43718 3.28341 3.28341 5.43718 1.70676 7.77505L 5.03063 10.0003C 6.3743 7.97614 7.97614 6.3743 10.0003 5.03063L 7.77505 1.70676ZM -1.58129 15.7086C -1.8473 17.0649 -1.9975 18.5643 -2 20L 2 20C 1.9975 18.7642 2.10918 17.6534 2.34266 16.4849L -1.58129 15.7086ZM -2 20C -1.9975 21.4357 -1.8473 22.9351 -1.58129 24.2914L 2.34266 23.5151C 2.10918 22.3466 1.9975 21.2358 2 20L -2 20ZM 1.70676 32.225C 3.28341 34.5628 5.43718 36.7166 7.77505 38.2932L 10.0003 34.9694C 7.97614 33.6257 6.3743 32.0239 5.03063 29.9997L 1.70676 32.225ZM 15.7086 41.5813C 17.0649 41.8473 18.5643 41.9975 20 42L 20 38C 18.7642 38.0025 17.6534 37.8908 16.4849 37.6573L 15.7086 41.5813ZM 20 42C 21.4357 41.9975 22.9351 41.8473 24.2914 41.5813L 23.5151 37.6573C 22.3466 37.8908 21.2358 38.0025 20 38L 20 42ZM 32.225 38.2932C 34.5628 36.7166 36.7166 34.5628 38.2932 32.225L 34.9694 29.9997C 33.6257 32.0239 32.0239 33.6257 29.9997 34.9694L 32.225 38.2932ZM 41.5813 24.2914C 41.8473 22.9351 41.9975 21.4357 42 20L 38 20C 38.0025 21.2358 37.8908 22.3466 37.6573 23.5151L 41.5813 24.2914Z"/>
<path id="path10_stroke" d="M 0 0L 153.584 0L 153.584 -2L 0 -2L 0 0Z"/>
<path id="path11_stroke" d="M 0 0L 4.91828 0L 4.91828 -2L 0 -2L 0 0ZM 14.7548 0L 24.5914 0L 24.5914 -2L 14.7548 -2L 14.7548 0ZM 34.4279 0L 44.2645 0L 44.2645 -2L 34.4279 -2L 34.4279 0ZM 54.1011 0L 63.9376 0L 63.9376 -2L 54.1011 -2L 54.1011 0ZM 73.7742 0L 83.6107 0L 83.6107 -2L 73.7742 -2L 73.7742 0ZM 93.4473 0L 103.284 0L 103.284 -2L 93.4473 -2L 93.4473 0ZM 113.12 0L 122.957 0L 122.957 -2L 113.12 -2L 113.12 0ZM 132.793 0L 142.63 0L 142.63 -2L 132.793 -2L 132.793 0ZM 152.467 0L 157.385 0L 157.385 -2L 152.467 -2L 152.467 0Z"/>
<path id="path12_fill" d="M 10 5C 10 7.76142 7.76142 10 5 10C 2.23858 10 0 7.76142 0 5C 0 2.23858 2.23858 0 5 0C 7.76142 0 10 2.23858 10 5Z"/>
</defs>
</svg>
