<svg width="170" height="170" viewBox="0 0 170 170" version="1.1" xmlns="http://www.w3.org/2000/svg" xmlns:xlink="http://www.w3.org/1999/xlink">
<title>Discovery</title>
<g id="Canvas" transform="translate(-269 -1291)">
<g id="Discovery">
<mask id="mask30_alpha" mask-type="alpha">
<g id="Ellipse">
<use xlink:href="#path30_fill" transform="translate(269 1291)" fill="#808080"/>
<mask id="mask31_outline_ins">
<use xlink:href="#path30_fill" fill="white" transform="translate(269 1291)"/>
</mask>
<g mask="url(#mask31_outline_ins)">
<use xlink:href="#path31_stroke_2x" transform="translate(269 1291)" fill="#FFFFFF"/>
</g>
</g>
</mask>
<g id="Mask Group" mask="url(#mask30_alpha)">
<mask id="mask32_alpha" mask-type="alpha">
<g id="Rectangle">
<use xlink:href="#path32_fill" transform="translate(354 1275)" fill="#FFFFFF"/>
</g>
</mask>
<g id="Rectangle" mask="url(#mask32_alpha)">
<mask id="mask33_outline_ins">
<use xlink:href="#path32_fill" fill="white" transform="translate(354 1275)"/>
</mask>
<g mask="url(#mask33_outline_ins)">
<use xlink:href="#path33_stroke_2x" transform="translate(354 1275)" fill="#808080"/>
</g>
</g>
<g id="Ellipse" mask="url(#mask32_alpha)">
<mask id="mask34_outline_ins">
<use xlink:href="#path34_fill" fill="white" transform="translate(289 1311)"/>
</mask>
<g mask="url(#mask34_outline_ins)">
<use xlink:href="#path35_stroke_2x" transform="translate(289 1311)" fill="#808080"/>
</g>
</g>
<g id="Ellipse" mask="url(#mask32_alpha)">
<mask id="mask35_outline_ins">
<use xlink:href="#path36_fill" fill="white" transform="translate(309 1331)"/>
</mask>
<g mask="url(#mask35_outline_ins)">
<use xlink:href="#path37_stroke_2x" transform="translate(309 1331)" fill="#808080"/>
</g>
</g>
<g id="Ellipse" mask="url(#mask32_alpha)">
<mask id="mask36_outline_ins">
<use xlink:href="#path38_fill" fill="white" transform="translate(329 1351)"/>
</mask>
<g mask="url(#mask36_outline_ins)">
<use xlink:href="#path39_stroke_2x" transform="translate(329 1351)" fill="#808080"/>
</g>
</g>
</g>
<g id="Ellipse" mask="url(#mask30_alpha)">
<mask id="mask37_outline_ins">
<use xlink:href="#path30_fill" fill="white" transform="translate(269 1291)"/>
</mask>
<g mask="url(#mask37_outline_ins)">
<use xlink:href="#path31_stroke_2x" transform="translate(269 1291)" fill="#808080"/>
</g>
</g>
<g id="Ellipse" mask="url(#mask30_alpha)">
<mask id="mask38_outline_ins">
<use xlink:href="#path34_fill" fill="white" transform="translate(289 1311)"/>
</mask>
<g mask="url(#mask38_outline_ins)">
<use xlink:href="#path310_stroke_2x" transform="translate(289 1311)" fill="#808080"/>
</g>
</g>
<g id="Ellipse" mask="url(#mask30_alpha)">
<mask id="mask39_outline_ins">
<use xlink:href="#path36_fill" fill="white" transform="translate(309 1331)"/>
</mask>
<g mask="url(#mask39_outline_ins)">
<use xlink:href="#path311_stroke_2x" transform="translate(309 1331)" fill="#808080"/>
</g>
</g>
<g id="Ellipse" mask="url(#mask30_alpha)">
<mask id="mask310_outline_ins">
<use xlink:href="#path38_fill" fill="white" transform="translate(329 1351)"/>
</mask>
<g mask="url(#mask310_outline_ins)">
<use xlink:href="#path312_stroke_2x" transform="translate(329 1351)" fill="#808080"/>
</g>
</g>
<g id="Ellipse" mask="url(#mask30_alpha)">
<use xlink:href="#path313_fill" transform="translate(349 1371)" fill="#808080"/>
</g>
</g>
</g>
<defs>
<path id="path30_fill" d="M 170 85C 170 131.944 131.944 170 85 170C 38.0558 170 0 131.944 0 85C 0 38.0558 38.0558 0 85 0C 131.944 0 170 38.0558 170 85Z"/>
<path id="path31_stroke_2x" d="M 167 85C 167 130.287 130.287 167 85 167L 85 173C 133.601 173 173 133.601 173 85L 167 85ZM 85 167C 39.7127 167 3 130.287 3 85L -3 85C -3 133.601 36.3989 173 85 173L 85 167ZM 3 85C 3 39.7127 39.7127 3 85 3L 85 -3C 36.3989 -3 -3 36.3989 -3 85L 3 85ZM 85 3C 130.287 3 167 39.7127 167 85L 173 85C 173 36.3989 133.601 -3 85 -3L 85 3Z"/>
<path id="path32_fill" d="M 30 0L 102 0L 102 82L 0 102L 30 0Z"/>
<path id="path33_stroke_2x" d="M 30 0L 30 -2L 28.5035 -2L 28.0813 -0.564333L 30 0ZM 102 0L 104 0L 104 -2L 102 -2L 102 0ZM 102 82L 102.385 83.9626L 104 83.6459L 104 82L 102 82ZM 0 102L -1.91873 101.436L -2.84842 104.597L 0.384829 103.963L 0 102ZM 30 2L 102 2L 102 -2L 30 -2L 30 2ZM 100 0L 100 82L 104 82L 104 0L 100 0ZM 101.615 80.0374L -0.384829 100.037L 0.384829 103.963L 102.385 83.9626L 101.615 80.0374ZM 1.91873 102.564L 31.9187 0.564333L 28.0813 -0.564333L -1.91873 101.436L 1.91873 102.564Z"/>
<path id="path34_fill" d="M 130 65C 130 100.899 100.899 130 65 130C 29.1015 130 0 100.899 0 65C 0 29.1015 29.1015 0 65 0C 100.899 0 130 29.1015 130 65Z"/>
<path id="path35_stroke_2x" d="M 128 65C 128 99.7939 99.7939 128 65 128L 65 132C 102.003 132 132 102.003 132 65L 128 65ZM 65 128C 30.2061 128 2 99.7939 2 65L -2 65C -2 102.003 27.9969 132 65 132L 65 128ZM 2 65C 2 30.2061 30.2061 2 65 2L 65 -2C 27.9969 -2 -2 27.9969 -2 65L 2 65ZM 65 2C 99.7939 2 128 30.2061 128 65L 132 65C 132 27.9969 102.003 -2 65 -2L 65 2Z"/>
<path id="path36_fill" d="M 90 45C 90 69.8528 69.8528 90 45 90C 20.1472 90 0 69.8528 0 45C 0 20.1472 20.1472 0 45 0C 69.8528 0 90 20.1472 90 45Z"/>
<path id="path37_stroke_2x" d="M 88 45C 88 68.7482 68.7482 88 45 88L 45 92C 70.9574 92 92 70.9574 92 45L 88 45ZM 45 88C 21.2518 88 2 68.7482 2 45L -2 45C -2 70.9574 19.0426 92 45 92L 45 88ZM 2 45C 2 21.2518 21.2518 2 45 2L 45 -2C 19.0426 -2 -2 19.0426 -2 45L 2 45ZM 45 2C 68.7482 2 88 21.2518 88 45L 92 45C 92 19.0426 70.9574 -2 45 -2L 45 2Z"/>
<path id="path38_fill" d="M 50 25C 50 38.8071 38.8071 50 25 50C 11.1929 50 0 38.8071 0 25C 0 11.1929 11.1929 0 25 0C 38.8071 0 50 11.1929 50 25Z"/>
<path id="path39_stroke_2x" d="M 48 25C 48 37.7025 37.7025 48 25 48L 25 52C 39.9117 52 52 39.9117 52 25L 48 25ZM 25 48C 12.2975 48 2 37.7025 2 25L -2 25C -2 39.9117 10.0883 52 25 52L 25 48ZM 2 25C 2 12.2975 12.2975 2 25 2L 25 -2C 10.0883 -2 -2 10.0883 -2 25L 2 25ZM 25 2C 37.7025 2 48 12.2975 48 25L 52 25C 52 10.0883 39.9117 -2 25 -2L 25 2Z"/>
<path id="path310_stroke_2x" d="M 131 65C 131 62.8249 130.893 60.6504 130.687 58.5296L 128.696 58.7233C 128.898 60.7963 129 62.874 129 65L 131 65ZM 128.174 45.8351C 126.913 41.6765 125.233 37.6467 123.218 33.8816L 121.455 34.8259C 123.427 38.5046 125.03 42.3521 126.26 46.4151L 128.174 45.8351ZM 116.02 23.129C 113.286 19.8026 110.197 16.7143 106.871 13.9797L 105.601 15.5251C 108.854 18.1958 111.804 21.1461 114.475 24.3986L 116.02 23.129ZM 96.1184 6.78205C 92.3533 4.76671 88.3235 3.08709 84.1649 1.82582L 83.5849 3.7399C 87.6479 4.96955 91.4954 6.57337 95.1741 8.54508L 96.1184 6.78205ZM 71.4704 -0.686786C 69.3496 -0.892898 67.1751 -0.999699 65 -1L 65 1C 67.126 0.999699 69.2037 1.10177 71.2767 1.30381L 71.4704 -0.686786ZM 65 -1C 62.8249 -0.999699 60.6504 -0.892898 58.5296 -0.686786L 58.7233 1.30381C 60.7963 1.10177 62.874 0.999699 65 1L 65 -1ZM 45.8351 1.82582C 41.6765 3.0871 37.6467 4.76671 33.8816 6.78205L 34.8259 8.54508C 38.5046 6.57337 42.3521 4.96955 46.4151 3.7399L 45.8351 1.82582ZM 23.129 13.9797C 19.8026 16.7143 16.7143 19.8026 13.9797 23.129L 15.5251 24.3986C 18.1958 21.1461 21.1461 18.1958 24.3986 15.5251L 23.129 13.9797ZM 6.78205 33.8816C 4.76671 37.6467 3.08709 41.6765 1.82582 45.8351L 3.7399 46.4151C 4.96955 42.3521 6.57337 38.5046 8.54508 34.8259L 6.78205 33.8816ZM -0.686786 58.5296C -0.892898 60.6504 -0.999699 62.8249 -1 65L 1 65C 0.999699 62.874 1.10177 60.7963 1.30381 58.7233L -0.686786 58.5296ZM -1 65C -0.999699 67.1751 -0.892898 69.3496 -0.686786 71.4704L 1.30381 71.2767C 1.10177 69.2037 0.999699 67.126 1 65L -1 65ZM 1.82582 84.1649C 3.0871 88.3235 4.76671 92.3533 6.78205 96.1184L 8.54508 95.1741C 6.57337 91.4954 4.96955 87.6479 3.7399 83.5849L 1.82582 84.1649ZM 13.9797 106.871C 16.7143 110.197 19.8026 113.286 23.129 116.02L 24.3986 114.475C 21.1461 111.804 18.1958 108.854 15.5251 105.601L 13.9797 106.871ZM 33.8816 123.218C 37.6467 125.233 41.6765 126.913 45.8351 128.174L 46.4151 126.26C 42.3521 125.03 38.5046 123.427 34.8259 121.455L 33.8816 123.218ZM 58.5296 130.687C 60.6504 130.893 62.8249 131 65 131L 65 129C 62.874 129 60.7963 128.898 58.7233 128.696L 58.5296 130.687ZM 65 131C 67.1751 131 69.3496 130.893 71.4704 130.687L 71.2767 128.696C 69.2037 128.898 67.126 129 65 129L 65 131ZM 84.1649 128.174C 88.3235 126.913 92.3533 125.233 96.1184 123.218L 95.1741 121.455C 91.4954 123.427 87.6479 125.03 83.5849 126.26L 84.1649 128.174ZM 106.871 116.02C 110.197 113.286 113.286 110.197 116.02 106.871L 114.475 105.601C 111.804 108.854 108.854 111.804 105.601 114.475L 106.871 116.02ZM 123.218 96.1184C 125.233 92.3533 126.913 88.3235 128.174 84.1649L 126.26 83.5849C 125.03 87.6479 123.427 91.4954 121.455 95.1741L 123.218 96.1184ZM 130.687 71.4704C 130.893 69.3496 131 67.1751 131 65L 129 65C 129 67.126 128.898 69.2037 128.696 71.2767L 130.687 71.4704ZM 132 65C 131.999 62.8004 131.89 60.5774 131.682 58.4327L 127.701 58.8201C 127.901 60.8693 128.001 62.8986 128 65L 132 65ZM 129.131 45.5452C 127.854 41.3387 126.137 37.2178 124.099 33.4095L 120.573 35.2981C 122.523 38.9336 124.089 42.6898 125.303 46.705L 129.131 45.5452ZM 116.793 22.4941C 114.026 19.1308 110.869 15.9735 107.506 13.2071L 104.967 16.2977C 108.182 18.9366 111.063 21.8179 113.702 25.0335L 116.793 22.4941ZM 96.5905 5.90054C 92.7822 3.86338 88.6613 2.14587 84.4548 0.86878L 83.295 4.69694C 87.3102 5.91077 91.0664 7.47669 94.7019 9.4266L 96.5905 5.90054ZM 71.5673 -1.68208C 69.4226 -1.89023 67.1996 -1.9994 65 -2L 65 2C 67.1014 1.9994 69.1307 2.0991 71.1798 2.29911L 71.5673 -1.68208ZM 65 -2C 62.8004 -1.9994 60.5774 -1.89023 58.4327 -1.68208L 58.8201 2.29911C 60.8693 2.0991 62.8986 1.9994 65 2L 65 -2ZM 45.5452 0.868781C 41.3387 2.14587 37.2178 3.86338 33.4095 5.90054L 35.2981 9.4266C 38.9336 7.47669 42.6898 5.91077 46.705 4.69694L 45.5452 0.868781ZM 22.4941 13.2071C 19.1308 15.9735 15.9735 19.1308 13.2071 22.4941L 16.2977 25.0335C 18.9366 21.8179 21.8179 18.9366 25.0335 16.2977L 22.4941 13.2071ZM 5.90054 33.4095C 3.86338 37.2178 2.14587 41.3387 0.86878 45.5452L 4.69694 46.705C 5.91077 42.6898 7.47669 38.9336 9.4266 35.2981L 5.90054 33.4095ZM -1.68208 58.4327C -1.89023 60.5774 -1.9994 62.8004 -2 65L 2 65C 1.9994 62.8986 2.0991 60.8693 2.29911 58.8201L -1.68208 58.4327ZM -2 65C -1.9994 67.1996 -1.89023 69.4226 -1.68208 71.5673L 2.29911 71.1798C 2.0991 69.1307 1.9994 67.1014 2 65L -2 65ZM 0.868781 84.4548C 2.14587 88.6613 3.86338 92.7822 5.90054 96.5905L 9.4266 94.7019C 7.47669 91.0664 5.91077 87.3102 4.69694 83.295L 0.868781 84.4548ZM 13.2071 107.506C 15.9735 110.869 19.1308 114.026 22.4941 116.793L 25.0335 113.702C 21.8179 111.063 18.9366 108.182 16.2977 104.967L 13.2071 107.506ZM 33.4095 124.099C 37.2178 126.137 41.3387 127.854 45.5452 129.131L 46.705 125.303C 42.6898 124.089 38.9336 122.523 35.2981 120.573L 33.4095 124.099ZM 58.4327 131.682C 60.5774 131.89 62.8004 131.999 65 132L 65 128C 62.8986 128.001 60.8693 127.901 58.8201 127.701L 58.4327 131.682ZM 65 132C 67.1996 131.999 69.4226 131.89 71.5673 131.682L 71.1798 127.701C 69.1307 127.901 67.1014 128.001 65 128L 65 132ZM 84.4548 129.131C 88.6613 127.854 92.7822 126.137 96.5905 124.099L 94.7019 120.573C 91.0664 122.523 87.3102 124.089 83.295 125.303L 84.4548 129.131ZM 107.506 116.793C 110.869 114.026 114.026 110.869 116.793 107.506L 113.702 104.967C 111.063 108.182 108.182 111.063 104.967 113.702L 107.506 116.793ZM 124.099 96.5905C 126.137 92.7822 127.854 88.6613 129.131 84.4548L 125.303 83.295C 124.089 87.3102 122.523 91.0664 120.573 94.7019L 124.099 96.5905ZM 131.682 71.5673C 131.89 69.4226 131.999 67.1996 132 65L 128 65C 128.001 67.1014 127.901 69.1307 127.701 71.1798L 131.682 71.5673Z"/>
<path id="path311_stroke_2x" d="M 91 45C 90.9997 43.4866 90.925 41.9663 90.7817 40.4907L 88.7911 40.6844C 88.9304 42.1122 89.0003 43.5357 89 45L 91 45ZM 89.0304 31.6428C 88.1524 28.749 86.9779 25.9311 85.576 23.3112L 83.8129 24.2555C 85.1713 26.789 86.2699 29.4246 87.1164 32.2227L 89.0304 31.6428ZM 80.5595 15.817C 78.6565 13.5028 76.4972 11.3435 74.183 9.44054L 72.9133 10.9859C 75.1537 12.825 77.175 14.8463 79.0141 17.0867L 80.5595 15.817ZM 66.6888 4.42403C 64.0689 3.02208 61.251 1.84761 58.3572 0.969556L 57.7773 2.88364C 60.5754 3.73006 63.211 4.82874 65.7445 6.18706L 66.6888 4.42403ZM 49.5093 -0.781713C 48.0337 -0.925032 46.5134 -0.999699 45 -1L 45 1C 46.4643 0.999699 47.8878 1.06963 49.3156 1.20888L 49.5093 -0.781713ZM 45 -1C 43.4866 -0.999699 41.9663 -0.925032 40.4907 -0.781713L 40.6844 1.20888C 42.1122 1.06963 43.5357 0.999699 45 1L 45 -1ZM 31.6428 0.969556C 28.749 1.84761 25.9311 3.02208 23.3112 4.42403L 24.2555 6.18706C 26.789 4.82874 29.4246 3.73006 32.2227 2.88364L 31.6428 0.969556ZM 15.817 9.44054C 13.5028 11.3435 11.3435 13.5028 9.44054 15.817L 10.9859 17.0867C 12.825 14.8463 14.8463 12.825 17.0867 10.9859L 15.817 9.44054ZM 4.42403 23.3112C 3.02208 25.9311 1.84761 28.749 0.969556 31.6428L 2.88364 32.2227C 3.73006 29.4246 4.82874 26.789 6.18706 24.2555L 4.42403 23.3112ZM -0.781713 40.4907C -0.925032 41.9663 -0.999699 43.4866 -1 45L 1 45C 0.999699 43.5357 1.06963 42.1122 1.20888 40.6844L -0.781713 40.4907ZM -1 45C -0.999699 46.5134 -0.925032 48.0337 -0.781713 49.5093L 1.20888 49.3156C 1.06963 47.8878 0.999699 46.4643 1 45L -1 45ZM 0.969556 58.3572C 1.84761 61.251 3.02208 64.0689 4.42403 66.6888L 6.18706 65.7445C 4.82874 63.211 3.73006 60.5754 2.88364 57.7773L 0.969556 58.3572ZM 9.44054 74.183C 11.3435 76.4972 13.5028 78.6565 15.817 80.5595L 17.0867 79.0141C 14.8463 77.175 12.825 75.1537 10.9859 72.9133L 9.44054 74.183ZM 23.3112 85.576C 25.9311 86.9779 28.749 88.1524 31.6428 89.0304L 32.2227 87.1164C 29.4246 86.2699 26.789 85.1713 24.2555 83.8129L 23.3112 85.576ZM 40.4907 90.7817C 41.9663 90.925 43.4866 90.9997 45 91L 45 89C 43.5357 89.0003 42.1122 88.9304 40.6844 88.7911L 40.4907 90.7817ZM 45 91C 46.5134 90.9997 48.0337 90.925 49.5093 90.7817L 49.3156 88.7911C 47.8878 88.9304 46.4643 89.0003 45 89L 45 91ZM 58.3572 89.0304C 61.251 88.1524 64.0689 86.9779 66.6888 85.576L 65.7445 83.8129C 63.211 85.1713 60.5754 86.2699 57.7773 87.1164L 58.3572 89.0304ZM 74.183 80.5595C 76.4972 78.6565 78.6565 76.4972 80.5595 74.183L 79.0141 72.9133C 77.175 75.1537 75.1537 77.175 72.9133 79.0141L 74.183 80.5595ZM 85.576 66.6888C 86.9779 64.0689 88.1524 61.251 89.0304 58.3572L 87.1164 57.7773C 86.2699 60.5754 85.1713 63.211 83.8129 65.7445L 85.576 66.6888ZM 90.7817 49.5093C 90.925 48.0337 90.9997 46.5134 91 45L 89 45C 89.0003 46.4643 88.9304 47.8878 88.7911 49.3156L 90.7817 49.5093ZM 92 45C 91.9994 43.4621 91.9224 41.8933 91.777 40.3938L 87.7958 40.7812C 87.933 42.1852 88.0006 43.5603 88 45L 92 45ZM 89.9875 31.3528C 89.0936 28.4113 87.8812 25.5022 86.4575 22.8391L 82.9314 24.7277C 84.2679 27.218 85.3287 29.7624 86.1593 32.5127L 89.9875 31.3528ZM 81.3321 15.1822C 79.3973 12.831 77.169 10.6027 74.8178 8.66789L 72.2785 11.7585C 74.4819 13.5658 76.4342 15.5181 78.2415 17.7215L 81.3321 15.1822ZM 67.1609 3.54252C 64.4978 2.11876 61.5887 0.906386 58.6472 0.012516L 57.4873 3.84068C 60.2376 4.67129 62.782 5.73207 65.2723 7.06858L 67.1609 3.54252ZM 49.6062 -1.77701C 48.1067 -1.92237 46.5379 -1.9994 45 -2L 45 2C 46.4397 1.9994 47.8148 2.06697 49.2187 2.20418L 49.6062 -1.77701ZM 45 -2C 43.4621 -1.9994 41.8933 -1.92236 40.3938 -1.77701L 40.7812 2.20418C 42.1852 2.06697 43.5603 1.9994 45 2L 45 -2ZM 31.3528 0.0125158C 28.4113 0.906386 25.5022 2.11876 22.8391 3.54252L 24.7277 7.06858C 27.218 5.73207 29.7624 4.67129 32.5127 3.84068L 31.3528 0.0125158ZM 15.1822 8.66789C 12.831 10.6027 10.6027 12.831 8.66789 15.1822L 11.7585 17.7215C 13.5658 15.5181 15.5181 13.5658 17.7215 11.7585L 15.1822 8.66789ZM 3.54252 22.8391C 2.11876 25.5022 0.906386 28.4113 0.012516 31.3528L 3.84068 32.5127C 4.67129 29.7624 5.73207 27.218 7.06858 24.7277L 3.54252 22.8391ZM -1.77701 40.3938C -1.92237 41.8933 -1.9994 43.4621 -2 45L 2 45C 1.9994 43.5603 2.06697 42.1852 2.20418 40.7813L -1.77701 40.3938ZM -2 45C -1.9994 46.5379 -1.92236 48.1067 -1.77701 49.6062L 2.20418 49.2188C 2.06697 47.8148 1.9994 46.4397 2 45L -2 45ZM 0.0125158 58.6472C 0.906386 61.5887 2.11876 64.4978 3.54252 67.1609L 7.06858 65.2723C 5.73207 62.782 4.67129 60.2376 3.84068 57.4873L 0.0125158 58.6472ZM 8.66789 74.8178C 10.6027 77.169 12.831 79.3973 15.1822 81.3321L 17.7215 78.2415C 15.5181 76.4342 13.5658 74.4819 11.7585 72.2785L 8.66789 74.8178ZM 22.8391 86.4575C 25.5022 87.8812 28.4113 89.0936 31.3528 89.9875L 32.5127 86.1593C 29.7624 85.3287 27.218 84.2679 24.7277 82.9314L 22.8391 86.4575ZM 40.3938 91.777C 41.8933 91.9224 43.4621 91.9994 45 92L 45 88C 43.5603 88.0006 42.1852 87.933 40.7813 87.7958L 40.3938 91.777ZM 45 92C 46.5379 91.9994 48.1067 91.9224 49.6062 91.777L 49.2188 87.7958C 47.8148 87.933 46.4397 88.0006 45 88L 45 92ZM 58.6472 89.9875C 61.5887 89.0936 64.4978 87.8812 67.1609 86.4575L 65.2723 82.9314C 62.782 84.2679 60.2376 85.3287 57.4873 86.1593L 58.6472 89.9875ZM 74.8178 81.3321C 77.169 79.3973 79.3973 77.169 81.3321 74.8178L 78.2415 72.2785C 76.4342 74.4819 74.4819 76.4342 72.2785 78.2415L 74.8178 81.3321ZM 86.4575 67.1609C 87.8812 64.4978 89.0936 61.5887 89.9875 58.6472L 86.1593 57.4873C 85.3287 60.2376 84.2679 62.782 82.9314 65.2723L 86.4575 67.1609ZM 91.777 49.6062C 91.9224 48.1067 91.9994 46.5379 92 45L 88 45C 88.0006 46.4397 87.933 47.8148 87.7958 49.2187L 91.777 49.6062Z"/>
<path id="path312_stroke_2x" d="M 51 25C 50.9995 23.8604 50.9233 22.7058 50.7803 21.6054L 48.7971 21.8641C 48.9329 22.9011 49.0005 23.9263 49 25L 51 25ZM 49.0267 15.0472C 48.1563 12.954 46.9874 10.9435 45.6279 9.17107L 44.0421 10.3897C 45.3266 12.0578 46.3641 13.8417 47.1793 15.8134L 49.0267 15.0472ZM 40.8289 4.3721C 39.0565 3.01263 37.046 1.84374 34.9528 0.973288L 34.1866 2.82074C 36.1583 3.63593 37.9422 4.67344 39.6103 5.95793L 40.8289 4.3721ZM 28.3946 -0.780292C 27.2942 -0.923314 26.1396 -0.999457 25 -1L 25 1C 26.0737 0.999457 27.0989 1.06713 28.1359 1.20291L 28.3946 -0.780292ZM 25 -1C 23.8604 -0.999457 22.7058 -0.923314 21.6054 -0.780292L 21.8641 1.20291C 22.9011 1.06713 23.9263 0.999457 25 1L 25 -1ZM 15.0472 0.973287C 12.954 1.84374 10.9435 3.01263 9.17107 4.3721L 10.3897 5.95793C 12.0578 4.67344 13.8417 3.63593 15.8134 2.82074L 15.0472 0.973287ZM 4.3721 9.17107C 3.01263 10.9435 1.84374 12.954 0.973288 15.0472L 2.82074 15.8134C 3.63593 13.8417 4.67344 12.0578 5.95793 10.3897L 4.3721 9.17107ZM -0.780292 21.6054C -0.923314 22.7058 -0.999457 23.8604 -1 25L 1 25C 0.999457 23.9263 1.06713 22.9011 1.20291 21.8641L -0.780292 21.6054ZM -1 25C -0.999457 26.1396 -0.923314 27.2942 -0.780292 28.3946L 1.20291 28.1359C 1.06713 27.0989 0.999457 26.0737 1 25L -1 25ZM 0.973287 34.9528C 1.84374 37.046 3.01263 39.0565 4.3721 40.8289L 5.95793 39.6103C 4.67344 37.9422 3.63593 36.1583 2.82074 34.1866L 0.973287 34.9528ZM 9.17107 45.6279C 10.9435 46.9874 12.954 48.1563 15.0472 49.0267L 15.8134 47.1793C 13.8417 46.3641 12.0578 45.3266 10.3897 44.0421L 9.17107 45.6279ZM 21.6054 50.7803C 22.7058 50.9233 23.8604 50.9995 25 51L 25 49C 23.9263 49.0005 22.9011 48.9329 21.8641 48.7971L 21.6054 50.7803ZM 25 51C 26.1396 50.9995 27.2942 50.9233 28.3946 50.7803L 28.1359 48.7971C 27.0989 48.9329 26.0737 49.0005 25 49L 25 51ZM 34.9528 49.0267C 37.046 48.1563 39.0565 46.9874 40.8289 45.6279L 39.6103 44.0421C 37.9422 45.3266 36.1583 46.3641 34.1866 47.1793L 34.9528 49.0267ZM 45.6279 40.8289C 46.9874 39.0565 48.1563 37.046 49.0267 34.9528L 47.1793 34.1866C 46.3641 36.1583 45.3266 37.9422 44.0421 39.6103L 45.6279 40.8289ZM 50.7803 28.3946C 50.9233 27.2942 50.9995 26.1396 51 25L 49 25C 49.0005 26.0737 48.9329 27.0989 48.7971 28.1359L 50.7803 28.3946ZM 52 25C 51.9989 23.8275 51.9185 22.6082 51.7719 21.4761L 47.8055 21.9935C 47.9376 22.9987 48.0011 23.9592 48 25L 52 25ZM 49.9504 14.6642C 49.0524 12.5101 47.8178 10.3864 46.4208 8.56174L 43.2491 10.9991C 44.4961 12.615 45.468 14.2856 46.2555 16.1964L 49.9504 14.6642ZM 41.4383 3.57918C 39.6136 2.18222 37.4899 0.947641 35.3358 0.0495617L 33.8036 3.74447C 35.7144 4.53202 37.385 5.50385 39.0009 6.75085L 41.4383 3.57918ZM 28.5239 -1.77189C 27.3918 -1.91854 26.1725 -1.99891 25 -2L 25 2C 26.0408 1.99891 27.0013 2.06235 28.0065 2.19451L 28.5239 -1.77189ZM 25 -2C 23.8275 -1.99891 22.6082 -1.91854 21.4761 -1.77189L 21.9935 2.19451C 22.9987 2.06235 23.9592 1.99891 25 2L 25 -2ZM 14.6642 0.0495613C 12.5101 0.94764 10.3864 2.18222 8.56174 3.57918L 10.9991 6.75085C 12.615 5.50385 14.2856 4.53202 16.1964 3.74447L 14.6642 0.0495613ZM 3.57918 8.56174C 2.18222 10.3864 0.947641 12.5101 0.0495617 14.6642L 3.74447 16.1964C 4.53202 14.2856 5.50385 12.615 6.75085 10.9991L 3.57918 8.56174ZM -1.77189 21.4761C -1.91854 22.6082 -1.99891 23.8275 -2 25L 2 25C 1.99891 23.9592 2.06235 22.9987 2.19451 21.9935L -1.77189 21.4761ZM -2 25C -1.99891 26.1725 -1.91854 27.3918 -1.77189 28.5239L 2.19451 28.0065C 2.06235 27.0013 1.99891 26.0408 2 25L -2 25ZM 0.0495613 35.3358C 0.94764 37.4899 2.18222 39.6136 3.57918 41.4383L 6.75085 39.0009C 5.50385 37.385 4.53202 35.7144 3.74447 33.8036L 0.0495613 35.3358ZM 8.56174 46.4208C 10.3864 47.8178 12.5101 49.0524 14.6642 49.9504L 16.1964 46.2555C 14.2856 45.468 12.615 44.4961 10.9991 43.2491L 8.56174 46.4208ZM 21.4761 51.7719C 22.6082 51.9185 23.8275 51.9989 25 52L 25 48C 23.9592 48.0011 22.9987 47.9376 21.9935 47.8055L 21.4761 51.7719ZM 25 52C 26.1725 51.9989 27.3918 51.9185 28.5239 51.7719L 28.0065 47.8055C 27.0013 47.9376 26.0408 48.0011 25 48L 25 52ZM 35.3358 49.9504C 37.4899 49.0524 39.6136 47.8178 41.4383 46.4208L 39.0009 43.2491C 37.385 44.4961 35.7144 45.468 33.8036 46.2555L 35.3358 49.9504ZM 46.4208 41.4383C 47.8178 39.6136 49.0524 37.4899 49.9504 35.3358L 46.2555 33.8036C 45.468 35.7144 44.4961 37.385 43.2491 39.0009L 46.4208 41.4383ZM 51.7719 28.5239C 51.9185 27.3918 51.9989 26.1725 52 25L 48 25C 48.0011 26.0408 47.9376 27.0013 47.8055 28.0065L 51.7719 28.5239Z"/>
<path id="path313_fill" d="M 10 5C 10 7.76142 7.76142 10 5 10C 2.23858 10 0 7.76142 0 5C 0 2.23858 2.23858 0 5 0C 7.76142 0 10 2.23858 10 5Z"/>
</defs>
</svg>
