<svg width="50px" height="50px" viewBox="0 0 50 50" version="1.1" xmlns="http://www.w3.org/2000/svg" xmlns:xlink="http://www.w3.org/1999/xlink">
    <title>Dribbble</title>
    <desc>Snapchat Lens Studio Social Link Dribbble</desc>
    <defs></defs>
    <g id="Page-0" stroke="none" stroke-width="1" fill="none" fill-rule="evenodd">
        <path d="M25,50 C11.1928813,50 0,38.8071187 0,25 C0,11.1928813 11.1928813,0 25,0 C38.8071187,0 50,11.1928813 50,25 C50,38.8071187 38.8071187,50 25,50 Z M39.6965957,21.9813041 C39.49903,21.0182846 39.2026815,20.0676113 38.8198978,19.1610322 C38.4459341,18.2720911 37.9784793,17.4148978 37.4369376,16.6141457 C36.9024517,15.820448 36.2850589,15.0726087 35.6076909,14.3953202 C34.9285587,13.7162676 34.1823954,13.1007113 33.3868404,12.5645246 C32.5859937,12.0212826 31.7287,11.5574109 30.8396546,11.1799633 C29.9329685,10.7989887 28.9839478,10.5026748 28.0208148,10.3068961 C27.0329865,10.1040628 26.0169341,10 25.0008817,10 C23.9830659,10 22.9670135,10.1040628 21.9791852,10.3068961 C21.0160522,10.5026748 20.0670315,10.7989887 19.1603454,11.1799633 C18.2713,11.5574109 17.4140063,12.0212826 16.6113954,12.5645246 C15.8176046,13.1007113 15.0714413,13.7162676 14.3923091,14.3953202 C13.7149411,15.0726087 13.0993117,15.820448 12.5630624,16.6141457 C12.0215207,17.4148978 11.5540659,18.2720911 11.1801022,19.1610322 C10.795555,20.0676113 10.50097,21.0182846 10.3034043,21.9813041 C10.1023111,22.9672528 10,23.9831852 10,24.9991183 C10,26.0185783 10.1023111,27.0345113 10.3034043,28.0222235 C10.50097,28.985243 10.795555,29.9341528 11.1801022,30.8389678 C11.5540659,31.7279089 12.0215207,32.5886298 12.5630624,33.389382 C13.0993117,34.1830796 13.7149411,34.9273913 14.3923091,35.6082074 C15.0714413,36.2854959 15.8176046,36.8992887 16.6113954,37.4372389 C17.4140063,37.9787174 18.2713,38.4443533 19.1603454,38.8200367 C20.0670315,39.2045389 21.0160522,39.4973252 21.9791852,39.6931039 C22.9670135,39.8977013 23.9830659,40 25.0008817,40 C26.0169341,40 27.0329865,39.8977013 28.0208148,39.6931039 C28.9839478,39.4973252 29.9329685,39.2045389 30.8396546,38.8200367 C31.7287,38.4443533 32.5859937,37.9787174 33.3868404,37.4372389 C34.1823954,36.8992887 34.9285587,36.2854959 35.6076909,35.6082074 C36.2850589,34.9273913 36.9024517,34.1830796 37.4369376,33.389382 C37.9784793,32.5886298 38.4459341,31.7279089 38.8198978,30.8389678 C39.2026815,29.9341528 39.49903,28.985243 39.6965957,28.0222235 C39.8976889,27.0345113 40,26.0185783 40,24.9991183 C40,23.9831852 39.8976889,22.9672528 39.6965957,21.9813041 Z M32.1591107,35.6240813 C32.0285767,34.8515493 31.3459163,31.091187 29.6648441,26.4753954 C33.8013759,25.8139809 37.3840183,26.9480865 37.648615,27.0345113 C37.0788498,30.6043861 35.0343974,33.6821683 32.1591107,35.6240813 Z M25.0008817,37.8111589 C21.8998059,37.8111589 19.0562709,36.7088011 16.8389487,34.8744785 C17.0082909,35.0120526 17.1264772,35.0984774 17.1264772,35.0984774 C17.1264772,35.0984774 19.5819367,29.7436652 27.179397,27.0962435 C27.2076204,27.0856607 27.237608,27.0786054 27.2658315,27.0697867 C29.0686189,31.7526015 29.8112539,35.6752307 30.0017637,36.7952259 C28.4653378,37.4478217 26.7736815,37.8111589 25.0008817,37.8111589 Z M12.1890987,24.9991183 C12.1890987,24.8633076 12.1961546,24.7292611 12.1996822,24.5952146 C12.4272361,24.6005057 18.7563941,24.7433709 25.3519137,22.76971 C25.7188215,23.4875657 26.0698535,24.2195311 26.3908978,24.9479689 C26.2215557,24.9938265 26.0539776,25.0449759 25.8863996,25.101417 C18.9733639,27.3343522 15.4665726,33.5534128 15.4665726,33.5534128 C15.4665726,33.5534128 15.4718643,33.5587039 15.4718643,33.560468 C13.4309402,31.2904933 12.1890987,28.2903172 12.1890987,24.9991183 Z M19.5343091,13.4164267 C19.7054154,13.6439533 22.0744398,16.855782 24.291762,20.7960491 C18.1407654,22.4310661 12.8011998,22.3658063 12.4642796,22.3605152 C13.2951139,18.3920278 15.9604867,15.102593 19.5343091,13.4164267 Z M21.9315576,12.5627611 C21.9315576,12.5645246 21.9297935,12.5662887 21.9297935,12.5662887 C21.9297935,12.5662887 21.9139176,12.5698163 21.8909859,12.5733433 C21.9050976,12.5698163 21.9174459,12.5680522 21.9315576,12.5627611 Z M33.460928,15.3883241 C33.4291763,15.4359459 31.6052213,18.2138865 26.7683898,20.0252807 C24.5792911,16.0021163 22.1732226,12.8061615 21.9809487,12.5521783 C22.9493735,12.3175965 23.9601341,12.1906052 25.0008817,12.1906052 C28.2430763,12.1906052 31.2047983,13.4005528 33.460928,15.3883241 Z M37.8073737,24.8721263 C37.6221557,24.8315598 33.2862941,23.8985246 28.885165,24.4523487 C28.793438,24.2336409 28.7034752,24.0131696 28.60822,23.7926983 C28.3418591,23.164795 28.0543307,22.5439476 27.756218,21.9336824 C32.8153111,19.868305 34.8685835,16.8998767 34.8932793,16.8646013 C36.6890102,19.0463872 37.7773861,21.8331472 37.8073737,24.8721263 Z" id="Dribbble" fill="#FF2973"></path>
    </g>
</svg>
