<svg width="50px" height="50px" viewBox="0 0 50 50" version="1.1" xmlns="http://www.w3.org/2000/svg" xmlns:xlink="http://www.w3.org/1999/xlink">
    <title>Medium</title>
    <desc>Snapchat Lens Studio Social Link Medium</desc>
    <defs></defs>
    <g id="Page-1" stroke="none" stroke-width="1" fill="none" fill-rule="evenodd">
        <path d="M25,50 C11.1928813,50 0,38.8071187 0,25 C0,11.1928813 11.1928813,0 25,0 C38.8071187,0 50,11.1928813 50,25 C50,38.8071187 38.8071187,50 25,50 Z M13.557423,17.8585699 L13.557423,31.1181253 C13.6390192,31.5964469 13.4882356,32.0850556 13.1512605,32.4342798 L10,36.2567282 L10,36.7607873 L18.9355742,36.7607873 L18.9355742,36.2567282 L15.7843137,32.4342798 C15.4448672,32.0856336 15.2847468,31.6002448 15.35014,31.1181253 L15.35014,19.6507802 L23.1932773,36.7607873 L24.1036415,36.7607873 L30.8403361,19.6507802 L30.8403361,33.2883801 C30.8403361,33.6524227 30.8403361,33.7224308 30.602241,33.9604589 L28.1792718,36.3127348 L28.1792718,36.8167939 L39.9439776,36.8167939 L39.9439776,36.3127348 L37.6050421,34.0164654 C37.3985704,33.8590806 37.2961499,33.6004078 37.3389356,33.3443866 L37.3389356,16.4724073 C37.2961499,16.2163862 37.3985704,15.9577132 37.6050421,15.8003285 L40,13.5040591 L40,13 L31.7086836,13 L25.7983193,27.7437295 L19.0756303,13 L10.3781513,13 L10.3781513,13.5040591 L13.1792717,16.878455 C13.4542595,17.1263124 13.5946957,17.4903032 13.557423,17.8585699 Z" id="Medium" fill="#FF2973"></path>
    </g>
</svg>
