<svg width="229.51" height="22" viewBox="0 0 462 45" version="1.1" xmlns="http://www.w3.org/2000/svg" xmlns:xlink="http://www.w3.org/1999/xlink">
<title>Smoke_Logo</title>
<g id="Canvas" transform="translate(424 1335)">
<g id="Smoke_Logo">
<g id="SMOKE Copy 15">
<use xlink:href="#path550_fill" transform="translate(-424 -1335)" fill="#FFFFFF"/>
</g>
</g>
</g>
<defs>
<path id="path550_fill" fill-rule="evenodd" d="M 25.6 34.0794L 25.6 27.8143C 25.6 26.8046 24.7667 26.2997 23.1 26.2997L 13.5 26.2997C 8.56664 26.2997 5.08334 25.5538 3.05 24.0621C 1.01666 22.5704 0 20.4247 0 17.6249L 0 8.53707C 0 2.84566 4.86662 0 14.6 0L 28.3 0C 38.0334 0 42.9 2.84566 42.9 8.53707L 42.9 13.8383L 25.4 13.8383L 25.4 10.1206C 25.4 9.11079 24.5667 8.60592 22.9 8.60592L 20 8.60592C 18.3333 8.60592 17.5 9.11079 17.5 10.1206L 17.5 16.6611C 17.5 17.6708 18.3333 18.1757 20 18.1757L 29.4 18.1757C 34.3334 18.1757 37.85 18.8871 39.95 20.31C 42.05 21.7328 43.1 23.8212 43.1 26.5751L 43.1 35.6629C 43.1 41.3543 38.2334 44.2 28.5 44.2L 14.9 44.2C 5.09995 44.2 0.2 41.3543 0.2 35.6629L 0.2 30.3617L 17.7 30.3617L 17.7 34.0794C 17.7 35.0892 18.5333 35.5941 20.2 35.5941L 23.1 35.5941C 24.7667 35.5941 25.6 35.0892 25.6 34.0794ZM 115.7 44.2L 100.1 44.2L 100.1 0L 119.2 0L 129.6 23.6146L 140 0L 159.1 0L 159.1 44.2L 143.6 44.2L 143.6 16.1103L 135.6 34.6302L 123.6 34.6302L 115.7 16.248L 115.7 44.2ZM 231.5 0L 246.3 0C 256.1 0 261 2.84566 261 8.53707L 261 35.6629C 261 41.3543 256.1 44.2 246.3 44.2L 231.5 44.2C 221.7 44.2 216.8 41.3543 216.8 35.6629L 216.8 8.53707C 216.8 2.84566 221.7 0 231.5 0ZM 243.5 34.0795L 243.5 10.1206C 243.5 9.11083 242.667 8.60596 241 8.60596L 236.8 8.60596C 235.133 8.60596 234.3 9.11083 234.3 10.1206L 234.3 34.0795C 234.3 35.0892 235.133 35.5941 236.8 35.5941L 241 35.5941C 242.667 35.5941 243.5 35.0892 243.5 34.0795ZM 354.5 21.6181L 367.1 44.2L 348.3 44.2L 336.3 21.6181L 348.2 0L 367 0L 354.5 21.6181ZM 318.7 44.2L 318.7 0L 336.2 0L 336.2 44.2L 318.7 44.2ZM 439.2 35.5941L 461.1 35.5941L 461.1 44.2L 421.7 44.2L 421.7 0L 460.2 0L 460.2 8.60592L 439.2 8.60592L 439.2 17.6249L 457.3 17.6249L 457.3 26.2308L 439.2 26.2308L 439.2 35.5941Z"/>
</defs>
</svg>
