<svg width="50px" height="50px" viewBox="0 0 50 50" version="1.1" xmlns="http://www.w3.org/2000/svg" xmlns:xlink="http://www.w3.org/1999/xlink">
    <title>Twitter</title>
    <desc>Snapchat Lens Studio Social Link Twitter</desc>
    <defs></defs>
    <g id="Page-3" stroke="none" stroke-width="1" fill="none" fill-rule="evenodd">
        <path d="M25,50 C11.1928813,50 0,38.8071187 0,25 C0,11.1928813 11.1928813,0 25,0 C38.8071187,0 50,11.1928813 50,25 C50,38.8071187 38.8071187,50 25,50 Z M41,16.9595519 C39.8976931,17.4615388 38.7108644,17.8010112 37.4659269,17.9526906 C38.7372775,17.1726256 39.7128012,15.9357169 40.1723894,14.4622606 C38.9820394,15.1845431 37.6666669,15.7100038 36.26149,15.9916938 C35.1415744,14.7656194 33.54094,14 31.7695019,14 C28.3727769,14 25.61701,16.82593 25.61701,20.3109425 C25.61701,20.8057062 25.6698363,21.2860237 25.7754888,21.7482844 C20.6601512,21.4846512 16.1259025,18.97472 13.0883956,15.1520406 C12.5583731,16.0873962 12.2555025,17.1726256 12.2555025,18.3282775 C12.2555025,20.5167931 13.3419619,22.4488987 14.9936606,23.5810763 C13.9864412,23.5503794 13.0355694,23.2632719 12.2044375,22.7937881 L12.2044375,22.8714338 C12.2044375,25.9303 14.32629,28.4817625 17.1436875,29.0595881 C16.6277513,29.2076562 16.0836412,29.28169 15.5219231,29.28169 C15.1257262,29.28169 14.7383344,29.2437706 14.3632681,29.1697363 C15.1468569,31.6760562 17.4183837,33.501625 20.11252,33.5503794 C18.006515,35.2441313 15.3511181,36.2535213 12.4685681,36.2535213 C11.9720019,36.2535213 11.4807181,36.22463 11,36.1668475 C13.7240713,37.9544962 16.9605563,39 20.4347594,39 C31.7571756,39 37.9466456,29.3846156 37.9466456,21.0440594 C37.9466456,20.7695919 37.9413631,20.4951244 37.9307975,20.2260744 C39.1334744,19.3358612 40.1776719,18.2253519 41,16.9595519 Z" id="Twitter" fill="#FF2973"></path>
    </g>
</svg>
